<svg width="16" height="16" viewBox="0 0 16 16" fill="none" xmlns="http://www.w3.org/2000/svg">
<path d="M8 0.5C6.51664 0.5 5.0666 0.939867 3.83323 1.76398C2.59986 2.58809 1.63856 3.75943 1.07091 5.12987C0.50325 6.50032 0.354725 8.00832 0.644114 9.46318C0.933503 10.918 1.64781 12.2544 2.6967 13.3033C3.7456 14.3522 5.08197 15.0665 6.53683 15.3559C7.99168 15.6453 9.49968 15.4968 10.8701 14.9291C12.2406 14.3614 13.4119 13.4001 14.236 12.1668C15.0601 10.9334 15.5 9.48336 15.5 8C15.4979 6.01153 14.707 4.1051 13.301 2.69904C11.8949 1.29297 9.98848 0.502118 8 0.5ZM11.281 8.625H8.625V11.281C8.625 11.4468 8.55916 11.6057 8.44195 11.7229C8.32473 11.8402 8.16576 11.906 8 11.906C7.83424 11.906 7.67527 11.8402 7.55806 11.7229C7.44085 11.6057 7.375 11.4468 7.375 11.281V8.625H4.719C4.55324 8.625 4.39427 8.55915 4.27706 8.44194C4.15985 8.32473 4.094 8.16576 4.094 8C4.094 7.83424 4.15985 7.67527 4.27706 7.55806C4.39427 7.44085 4.55324 7.375 4.719 7.375H7.375V4.719C7.375 4.55324 7.44085 4.39427 7.55806 4.27706C7.67527 4.15985 7.83424 4.094 8 4.094C8.16576 4.094 8.32473 4.15985 8.44195 4.27706C8.55916 4.39427 8.625 4.55324 8.625 4.719V7.375H11.281C11.4468 7.375 11.6057 7.44085 11.7229 7.55806C11.8402 7.67527 11.906 7.83424 11.906 8C11.906 8.16576 11.8402 8.32473 11.7229 8.44194C11.6057 8.55915 11.4468 8.625 11.281 8.625Z" fill="white" stroke="#325BAF" stroke-width="0.5" stroke-linecap="round" stroke-linejoin="round"/>
</svg>
