<svg width="10" height="8" viewBox="0 0 10 8" fill="none" xmlns="http://www.w3.org/2000/svg">
<path d="M-4.23109e-05 3.23903V6.27803C-0.0285818 6.66638 0.0969785 7.05036 0.349456 7.34682C0.601934 7.64328 0.961013 7.82837 1.34896 7.86203H8.64896C9.03745 7.82887 9.39719 7.64386 9.65012 7.34712C9.90304 7.05039 10.0288 6.66588 9.99996 6.27704V3.23804C10.0049 3.17037 9.98308 3.10348 9.9391 3.05182C9.89511 3.00016 9.83255 2.9679 9.76496 2.96204H0.234958C0.167179 2.9679 0.104458 3.00029 0.0604465 3.05217C0.0164348 3.10405 -0.00530533 3.1712 -4.23109e-05 3.23903V3.23903ZM2.49996 5.16803H1.87096C1.75618 5.14986 1.65166 5.09135 1.57619 5.00299C1.50071 4.91463 1.45925 4.80224 1.45925 4.68604C1.45925 4.56983 1.50071 4.45744 1.57619 4.36908C1.65166 4.28072 1.75618 4.22221 1.87096 4.20404H2.49996C2.61473 4.22221 2.71926 4.28072 2.79473 4.36908C2.8702 4.45744 2.91167 4.56983 2.91167 4.68604C2.91167 4.80224 2.8702 4.91463 2.79473 5.00299C2.71926 5.09135 2.61473 5.14986 2.49996 5.16803V5.16803Z" fill="white"/>
<path d="M9.99994 1.684V1.584C10.0285 1.19565 9.90292 0.811673 9.65045 0.515213C9.39797 0.218753 9.03889 0.0336597 8.65094 0H1.35095C0.962641 0.033164 0.603058 0.218049 0.350159 0.514565C0.0972595 0.81108 -0.0285724 1.19533 -5.48693e-05 1.584V1.684C-0.00504227 1.75166 0.0168234 1.81857 0.0608073 1.87022C0.104791 1.92188 0.167353 1.95413 0.234945 1.96H9.76495C9.83254 1.95413 9.8951 1.92188 9.93908 1.87022C9.98307 1.81857 10.0049 1.75166 9.99994 1.684V1.684Z" fill="white"/>
</svg>
