<svg width="32" height="32" viewBox="0 0 32 32" fill="none" xmlns="http://www.w3.org/2000/svg">
<path d="M16 32C24.8366 32 32 24.8366 32 16C32 7.16344 24.8366 0 16 0C7.16344 0 0 7.16344 0 16C0 24.8366 7.16344 32 16 32Z" fill="#325BAF"/>
<path d="M9.96301 22.073C9.96248 22.5828 10.1642 23.0721 10.524 23.4333C10.8838 23.7946 11.3722 23.9984 11.882 24H19.557C20.0669 23.9984 20.5553 23.7946 20.915 23.4333C21.2748 23.0721 21.4765 22.5828 21.476 22.073V12.44H9.96301V22.073Z" fill="#9AC0FA"/>
<path d="M17.639 8.963V8H13.799V8.963H8.99902V11.212H22.439V8.963H17.639Z" fill="#F1F3F4"/>
</svg>
