<svg width="24" height="24" viewBox="0 0 24 24" fill="none" xmlns="http://www.w3.org/2000/svg">
<g clip-path="url(#card0_211_8)">
<path d="M23.5 11H0.500023C0.433375 10.9962 0.366682 11.0065 0.304312 11.0303C0.241942 11.0541 0.185302 11.0908 0.138099 11.138C0.0908963 11.1852 0.0541962 11.2419 0.0304018 11.3043C0.00660736 11.3666 -0.00374473 11.4333 2.33544e-05 11.5V18.553C-0.00450454 18.8834 0.056927 19.2115 0.180723 19.5179C0.304518 19.8243 0.488191 20.1029 0.72099 20.3375C0.95379 20.5721 1.23104 20.7579 1.53651 20.884C1.84199 21.0101 2.16955 21.074 2.50002 21.072H21.5C21.8305 21.074 22.1581 21.0101 22.4635 20.884C22.769 20.7579 23.0463 20.5721 23.2791 20.3375C23.5119 20.1029 23.6955 19.8243 23.8193 19.5179C23.9431 19.2115 24.0046 18.8834 24 18.553V11.5C24.0038 11.4333 23.9934 11.3666 23.9696 11.3043C23.9459 11.2419 23.9092 11.1852 23.8619 11.138C23.8147 11.0908 23.7581 11.0541 23.6957 11.0303C23.6334 11.0065 23.5667 10.9962 23.5 11V11ZM3.50002 15.03H7.50002C7.63369 15.03 7.76189 15.0831 7.85641 15.1776C7.95092 15.2721 8.00402 15.4003 8.00402 15.534C8.00402 15.6676 7.95092 15.7958 7.85641 15.8904C7.76189 15.9849 7.63369 16.038 7.50002 16.038H3.50002C3.36635 16.038 3.23816 15.9849 3.14364 15.8904C3.04912 15.7958 2.99602 15.6676 2.99602 15.534C2.99602 15.4003 3.04912 15.2721 3.14364 15.1776C3.23816 15.0831 3.36635 15.03 3.50002 15.03V15.03ZM10.5 18.053H3.50002C3.36635 18.053 3.23816 17.9999 3.14364 17.9054C3.04912 17.8108 2.99602 17.6826 2.99602 17.549C2.99602 17.4153 3.04912 17.2871 3.14364 17.1926C3.23816 17.0981 3.36635 17.045 3.50002 17.045H10.5C10.6337 17.045 10.7619 17.0981 10.8564 17.1926C10.9509 17.2871 11.004 17.4153 11.004 17.549C11.004 17.6826 10.9509 17.8108 10.8564 17.9054C10.7619 17.9999 10.6337 18.053 10.5 18.053V18.053ZM19 18.053C18.6433 18.0617 18.293 17.9566 18 17.753C17.707 17.9566 17.3568 18.0617 17 18.053C16.4656 18.053 15.9531 17.8407 15.5752 17.4628C15.1973 17.0849 14.985 16.5724 14.985 16.038C14.985 15.5036 15.1973 14.991 15.5752 14.6132C15.9531 14.2353 16.4656 14.023 17 14.023C17.3568 14.0142 17.707 14.1193 18 14.323C18.293 14.1193 18.6433 14.0142 19 14.023C19.5344 14.023 20.047 14.2353 20.4248 14.6132C20.8027 14.991 21.015 15.5036 21.015 16.038C21.015 16.5724 20.8027 17.0849 20.4248 17.4628C20.047 17.8407 19.5344 18.053 19 18.053Z" fill="white"/>
<path d="M21.5 3H2.5C1.1 3 0 4.378 0 6.132V7.385C0 7.761 0.2 8.011 0.5 8.011H23.5C23.8 8.011 24 7.76 24 7.385V6.132C24 4.378 22.9 3 21.5 3Z" fill="white"/>
</g>
<defs>
<clipPath id="card0_211_8">
<rect width="24" height="24" fill="white"/>
</clipPath>
</defs>
</svg>
