<svg width="20" height="20" viewBox="0 0 20 20" fill="none" xmlns="http://www.w3.org/2000/svg">
<path d="M15.313 20H4.688C3.44524 19.9987 2.25375 19.5045 1.3749 18.6258C0.496043 17.7471 0.00158816 16.5558 0 15.313L0 4.688C0.00132353 3.44507 0.495661 2.25343 1.37455 1.37455C2.25343 0.495661 3.44507 0.00132353 4.688 0L15.313 0C16.5558 0.00158816 17.7471 0.496043 18.6258 1.3749C19.5045 2.25375 19.9987 3.44524 20 4.688V15.313C19.9984 16.5556 19.5041 17.7468 18.6255 18.6255C17.7468 19.5041 16.5556 19.9984 15.313 20V20ZM4.688 1.562C3.85918 1.56279 3.06453 1.89239 2.47846 2.47846C1.89239 3.06453 1.56279 3.85918 1.562 4.688V15.313C1.56306 16.1415 1.89264 16.9357 2.47846 17.5215C3.06428 18.1074 3.85852 18.4369 4.687 18.438H15.313C16.1415 18.4369 16.9357 18.1074 17.5215 17.5215C18.1074 16.9357 18.4369 16.1415 18.438 15.313V4.688C18.4369 3.85952 18.1074 3.06528 17.5215 2.47946C16.9357 1.89364 16.1415 1.56406 15.313 1.563L4.688 1.562ZM8.242 3.945C8.242 3.73787 8.15972 3.53922 8.01325 3.39275C7.86678 3.24628 7.66813 3.164 7.461 3.164H4.18C3.97273 3.164 3.77396 3.24634 3.6274 3.3929C3.48084 3.53946 3.3985 3.73823 3.3985 3.9455C3.3985 4.15277 3.48084 4.35154 3.6274 4.4981C3.77396 4.64466 3.97273 4.727 4.18 4.727H7.461C7.56365 4.727 7.66529 4.70677 7.76011 4.66745C7.85493 4.62814 7.94107 4.57053 8.0136 4.4979C8.08614 4.42527 8.14365 4.33905 8.18284 4.24418C8.22203 4.14931 8.24213 4.04765 8.242 3.945V3.945ZM15.39 13.045C15.39 12.8379 15.3077 12.6392 15.1613 12.4927C15.0148 12.3463 14.8161 12.264 14.609 12.264H8.086C7.87887 12.264 7.68022 12.3463 7.53375 12.4927C7.38728 12.6392 7.305 12.8379 7.305 13.045C7.305 13.2521 7.38728 13.4508 7.53375 13.5972C7.68022 13.7437 7.87887 13.826 8.086 13.826H14.609C14.816 13.8263 15.0146 13.7444 15.1612 13.5983C15.3078 13.4522 15.3905 13.254 15.391 13.047L15.39 13.045ZM16.445 16.092C16.445 15.8849 16.3627 15.6862 16.2162 15.5397C16.0698 15.3933 15.8711 15.311 15.664 15.311H13.945C13.7379 15.311 13.5392 15.3933 13.3927 15.5397C13.2463 15.6862 13.164 15.8849 13.164 16.092C13.164 16.2991 13.2463 16.4978 13.3927 16.6443C13.5392 16.7907 13.7379 16.873 13.945 16.873H15.664C15.8708 16.873 16.0691 16.791 16.2155 16.645C16.362 16.4989 16.4445 16.3008 16.445 16.094V16.092Z" fill="#325BAF"/>
<path d="M15.802 10.796H10.265C10.0566 10.796 9.85684 10.7133 9.70953 10.5659C9.56222 10.4186 9.47946 10.2188 9.47946 10.0105C9.47946 9.80219 9.56222 9.6024 9.70953 9.45509C9.85684 9.30778 10.0566 9.22502 10.265 9.22502H15.802C16.0103 9.22502 16.2101 9.30778 16.3574 9.45509C16.5047 9.6024 16.5875 9.80219 16.5875 10.0105C16.5875 10.2188 16.5047 10.4186 16.3574 10.5659C16.2101 10.7133 16.0103 10.796 15.802 10.796V10.796ZM13.838 6.98701C13.838 6.77882 13.7553 6.57916 13.608 6.43195C13.4608 6.28473 13.2612 6.20203 13.053 6.20203H5.70897C5.50064 6.20203 5.30084 6.28477 5.15353 6.43208C5.00622 6.57939 4.92346 6.77919 4.92346 6.98752C4.92346 7.19585 5.00622 7.39564 5.15353 7.54295C5.30084 7.69026 5.50064 7.77303 5.70897 7.77303H13.053C13.1563 7.77316 13.2587 7.75288 13.3541 7.71336C13.4496 7.67385 13.5364 7.61586 13.6094 7.54274C13.6824 7.46962 13.7403 7.38281 13.7797 7.28728C13.8191 7.19174 13.8392 7.08936 13.839 6.98602L13.838 6.98701Z" fill="#23CEFD"/>
</svg>
