<svg width="24" height="24" viewBox="0 0 24 24" fill="none" xmlns="http://www.w3.org/2000/svg">
<path d="M12 23.999C9.62694 23.9987 7.30722 23.2948 5.33415 21.9762C3.36108 20.6577 1.82325 18.7837 0.915086 16.5913C0.00692129 14.3989 -0.230799 11.9864 0.23198 9.65885C0.694759 7.33133 1.83726 5.19327 3.51503 3.51499C5.76764 1.27473 8.81668 0.0191582 11.9936 0.0235712C15.1706 0.0279842 18.2161 1.29202 20.4625 3.53853C22.7089 5.78503 23.9727 8.83066 23.9769 12.0076C23.9812 15.1845 22.7254 18.2335 20.485 20.486C19.3732 21.6034 18.0508 22.4893 16.5944 23.0923C15.1379 23.6953 13.5764 24.0034 12 23.999V23.999ZM10.453 9.74499V18.582C10.4533 18.8898 10.5757 19.185 10.7934 19.4026C11.011 19.6203 11.3062 19.7427 11.614 19.743H12.389C12.6969 19.7427 12.992 19.6203 13.2097 19.4026C13.4274 19.185 13.5498 18.8898 13.55 18.582V9.74499L17.05 13.397C17.1566 13.509 17.2845 13.5986 17.4262 13.6604C17.5679 13.7223 17.7205 13.7551 17.8751 13.7571C18.0297 13.759 18.1831 13.73 18.3263 13.6718C18.4696 13.6136 18.5997 13.5273 18.709 13.418L19.236 12.885C19.3449 12.7766 19.4312 12.6477 19.4899 12.5058C19.5486 12.3638 19.5786 12.2116 19.578 12.058C19.5776 11.9067 19.5472 11.7571 19.4885 11.6177C19.4298 11.4783 19.344 11.3519 19.236 11.246L12.823 4.82399C12.7154 4.71623 12.5876 4.63074 12.4469 4.57241C12.3062 4.51408 12.1553 4.48406 12.003 4.48406C11.8507 4.48406 11.6999 4.51408 11.5592 4.57241C11.4185 4.63074 11.2907 4.71623 11.183 4.82399L4.75703 11.246C4.64824 11.3538 4.56197 11.4822 4.50326 11.6236C4.44454 11.7651 4.41455 11.9168 4.41503 12.07C4.41503 12.2217 4.44527 12.372 4.50399 12.5119C4.56271 12.6518 4.64873 12.7787 4.75703 12.885L5.28403 13.418C5.50274 13.6354 5.79866 13.7573 6.10703 13.757C6.26454 13.7578 6.42054 13.7263 6.56537 13.6643C6.7102 13.6024 6.84078 13.5114 6.94903 13.397L10.449 9.74699L10.453 9.74499Z" fill="white"/>
</svg>
