<svg width="20" height="20" viewBox="0 0 20 20" fill="none" xmlns="http://www.w3.org/2000/svg">
<g opacity="0.15">
<g opacity="0.15">
<path opacity="0.15" d="M9.99903 0C8.02122 0 6.08782 0.58649 4.44333 1.6853C2.79883 2.78412 1.51711 4.3459 0.760233 6.17317C0.00335628 8.00043 -0.194677 10.0111 0.191175 11.9509C0.577027 13.8907 1.52944 15.6725 2.92796 17.0711C4.32649 18.4696 6.10832 19.422 8.04813 19.8079C9.98794 20.1937 11.9986 19.9957 13.8259 19.2388C15.6531 18.4819 17.2149 17.2002 18.3137 15.5557C19.4125 13.9112 19.999 11.9778 19.999 10C19.999 7.34784 18.9455 4.8043 17.0701 2.92893C15.1947 1.05357 12.6512 0 9.99903 0V0ZM14.511 8.776L10.775 12.512C10.7393 12.5691 10.6974 12.6221 10.65 12.67C10.5496 12.7717 10.4275 12.8494 10.2929 12.8974C10.1583 12.9454 10.0146 12.9624 9.87247 12.9473C9.73036 12.9321 9.5935 12.8851 9.47206 12.8097C9.35062 12.7344 9.24773 12.6326 9.17103 12.512L5.41903 8.76C5.33236 8.67333 5.2636 8.57043 5.2167 8.45719C5.16979 8.34395 5.14565 8.22257 5.14565 8.1C5.14565 7.97743 5.16979 7.85605 5.2167 7.74281C5.2636 7.62957 5.33236 7.52667 5.41903 7.44C5.5057 7.35333 5.6086 7.28458 5.72184 7.23767C5.83508 7.19076 5.95645 7.16662 6.07903 7.16662C6.2016 7.16662 6.32297 7.19076 6.43622 7.23767C6.54946 7.28458 6.65236 7.35333 6.73903 7.44L9.97403 10.674L13.191 7.456C13.3675 7.28766 13.6027 7.195 13.8466 7.19781C14.0904 7.20063 14.3235 7.29869 14.496 7.47106C14.6685 7.64343 14.7667 7.87643 14.7697 8.12026C14.7727 8.3641 14.6802 8.59944 14.512 8.776H14.511Z" fill="#325BAF"/>
</g>
</g>
</svg>
