<svg width="32" height="32" viewBox="0 0 32 32" fill="none" xmlns="http://www.w3.org/2000/svg">
<path d="M16 32C24.8366 32 32 24.8366 32 16C32 7.16344 24.8366 0 16 0C7.16344 0 0 7.16344 0 16C0 24.8366 7.16344 32 16 32Z" fill="#325BAF"/>
<path d="M22.5321 21.1956L20.9312 19.5947L22.7414 19.2312L22.3221 17.1502L19.1252 17.7887L17.2726 15.9361L19.4371 13.7717L22.1948 14.6909L22.8673 12.6764L21.1172 12.0916L22.5314 10.6774L21.0288 9.17477L19.6146 10.589L19.0305 8.8396L17.0159 9.51206L17.9352 12.2698L15.7707 14.4342L13.9181 12.5816L14.5566 9.38478L12.4756 8.96547L12.1122 10.7757L10.5113 9.17477L9.00866 10.6774L10.6103 12.279L8.79865 12.6424L9.21514 14.7263L12.4155 14.0856L14.2674 15.9375L12.4155 17.7895L9.21514 17.1502L8.79724 19.2327L10.6067 19.594L9.00654 21.1942L10.5106 22.6982L12.1114 21.0973L12.4742 22.9096L14.5587 22.4938L13.9181 19.2906L15.7693 17.4394L17.6212 19.2913L16.9806 22.4917L19.0644 22.9082L19.4279 21.0966L21.0295 22.6982L22.5321 21.1956Z" fill="#9AC0FA"/>
<path d="M22.5321 21.1956L20.9312 19.5947L22.7414 19.2312L22.3221 17.1502L19.1252 17.7887L17.2726 15.9361L19.4371 13.7717L22.1948 14.6909L22.8673 12.6764L21.1172 12.0916L22.5314 10.6774L21.0288 9.17477L19.6146 10.589L19.0305 8.8396L17.0159 9.51206L17.9352 12.2698L15.7707 14.4342L13.9181 12.5816L14.5566 9.38478L12.4756 8.96547L12.1122 10.7757L10.5113 9.17477L9.00866 10.6774L10.6103 12.279L8.79865 12.6424L9.21514 14.7263L12.4155 14.0856L14.2674 15.9375L12.4155 17.7895L9.21514 17.1502L8.79724 19.2327L10.6067 19.594L9.00654 21.1942L10.5106 22.6982L12.1114 21.0973L12.4742 22.9096L14.5587 22.4938L13.9181 19.2906L15.7693 17.4394L17.6212 19.2913L16.9806 22.4917L19.0644 22.9082L19.4279 21.0966L21.0295 22.6982L22.5321 21.1956Z" fill="#F1F3F4"/>
</svg>
