<svg width="32" height="32" viewBox="0 0 32 32" fill="none" xmlns="http://www.w3.org/2000/svg">
<path d="M16 32C24.8366 32 32 24.8366 32 16C32 7.16344 24.8366 0 16 0C7.16344 0 0 7.16344 0 16C0 24.8366 7.16344 32 16 32Z" fill="white"/>
<path d="M16 31.5C24.5604 31.5 31.5 24.5604 31.5 16C31.5 7.43959 24.5604 0.5 16 0.5C7.43959 0.5 0.5 7.43959 0.5 16C0.5 24.5604 7.43959 31.5 16 31.5Z" stroke="#EEEEEE"/>
<path fill-rule="evenodd" clip-rule="evenodd" d="M22.241 16.109C22.2413 15.6698 22.2058 15.2314 22.135 14.798H16.125V17.285H19.568C19.4981 17.681 19.3493 18.059 19.1305 18.3964C18.9116 18.7338 18.6272 19.0237 18.294 19.249V20.865H20.347C20.9754 20.247 21.4683 19.505 21.7943 18.6862C22.1204 17.8674 22.2725 16.9897 22.241 16.109V16.109Z" fill="#4285F4"/>
<path fill-rule="evenodd" clip-rule="evenodd" d="M16.125 22.428C17.6809 22.4703 19.1932 21.9108 20.347 20.866L18.294 19.25C17.6511 19.6721 16.8948 19.888 16.126 19.869C15.3258 19.8552 14.5501 19.5905 13.9084 19.1121C13.2668 18.6338 12.7916 17.966 12.55 17.203H10.434V18.873C10.9565 19.9374 11.7664 20.8345 12.7721 21.4627C13.7778 22.0909 14.9392 22.4253 16.125 22.428V22.428Z" fill="#34A853"/>
<path fill-rule="evenodd" clip-rule="evenodd" d="M12.549 17.204C12.2835 16.3993 12.2835 15.5307 12.549 14.726V13.065H10.434C9.98432 13.9656 9.75024 14.9584 9.75024 15.965C9.75024 16.9716 9.98432 17.9644 10.434 18.865L12.549 17.204Z" fill="#FBBC04"/>
<path fill-rule="evenodd" clip-rule="evenodd" d="M16.125 12.059C16.5762 12.0504 17.0246 12.1318 17.444 12.2983C17.8634 12.4649 18.2455 12.7133 18.568 13.029L20.394 11.179C19.2435 10.0856 17.7121 9.48361 16.125 9.50098C14.9385 9.50556 13.7768 9.8417 12.7712 10.4715C11.7656 11.1012 10.9561 11.9995 10.434 13.065L12.549 14.735C12.7884 13.9698 13.2627 13.2995 13.9046 12.8191C14.5465 12.3388 15.3233 12.0728 16.125 12.059V12.059Z" fill="#EA4335"/>
</svg>
