<svg width="24" height="25" viewBox="0 0 24 25" fill="none" xmlns="http://www.w3.org/2000/svg">
<path d="M12 0.125C8.86138 0.169248 5.86888 1.4583 3.68059 3.70866C1.49231 5.95902 0.287438 8.9864 0.330974 12.125C0.287702 15.2632 1.49238 18.2901 3.68018 20.5404C5.86798 22.7906 8.85982 24.08 11.998 24.125C14.3917 24.1127 16.72 23.3425 18.649 21.925C19.149 21.452 19.46 21.396 19.46 20.884L19.467 20.784C19.469 20.6428 19.4431 20.5026 19.3909 20.3715C19.3387 20.2403 19.2612 20.1207 19.1628 20.0194C19.0643 19.9182 18.9469 19.8374 18.8172 19.7815C18.6876 19.7257 18.5481 19.696 18.407 19.694C18.2627 19.6942 18.12 19.7249 17.9884 19.784C17.8567 19.8431 17.739 19.9293 17.643 20.037C16.023 21.2681 14.0447 21.9354 12.01 21.937C9.438 21.9009 6.98566 20.8447 5.19231 19.0008C3.39896 17.1568 2.41145 14.676 2.44697 12.104C2.4124 10.8263 2.6342 9.55469 3.09927 8.36417C3.56433 7.17365 4.26324 6.08838 5.15471 5.17246C6.04618 4.25654 7.11215 3.52854 8.28965 3.03145C9.46716 2.53435 10.7323 2.27824 12.0105 2.27824C13.2886 2.27824 14.5538 2.53435 15.7313 3.03145C16.9088 3.52854 17.9748 4.25654 18.8662 5.17246C19.7577 6.08838 20.4566 7.17365 20.9217 8.36417C21.3867 9.55469 21.6085 10.8263 21.574 12.104C21.5734 13.5508 21.2592 14.9803 20.653 16.294C20.4637 16.6778 20.3001 17.0736 20.163 17.479L20.156 17.579C20.1522 17.8647 20.2621 18.1403 20.4614 18.345C20.6608 18.5498 20.9332 18.667 21.219 18.671C21.4472 18.6674 21.6681 18.5898 21.8484 18.4498C22.0288 18.3099 22.1588 18.1152 22.219 17.895V17.895C23.1708 16.1208 23.6683 14.1384 23.667 12.125C23.711 8.98659 22.5066 5.9592 20.3187 3.70878C18.1307 1.45836 15.1384 0.169245 12 0.125V0.125ZM5.48397 10.825C5.49823 11.0794 5.60491 11.3198 5.78397 11.501C5.96418 11.6816 6.20518 11.7885 6.45997 11.801V11.801C6.49593 11.8035 6.53202 11.8035 6.56797 11.801H17.368C17.6421 11.801 17.905 11.6921 18.0988 11.4983C18.2926 11.3045 18.4015 11.0416 18.4015 10.7675C18.4015 10.4934 18.2926 10.2305 18.0988 10.0367C17.905 9.84289 17.6421 9.734 17.368 9.734L8.93097 9.746L10.153 8.512C10.3277 8.32213 10.4223 8.07206 10.417 7.81407C10.4116 7.55608 10.3068 7.31015 10.1243 7.12768C9.94183 6.94521 9.69589 6.84035 9.4379 6.835C9.17991 6.82966 8.92984 6.92425 8.73997 7.099L5.78397 10.082C5.61428 10.2507 5.51159 10.4753 5.49497 10.714H5.48797C5.48488 10.7506 5.48488 10.7874 5.48797 10.824L5.48397 10.825ZM13.731 17.716C13.8239 17.8091 13.9342 17.883 14.0557 17.9334C14.1772 17.9838 14.3074 18.0098 14.439 18.0098C14.5705 18.0098 14.7008 17.9838 14.8222 17.9334C14.9437 17.883 15.0541 17.8091 15.147 17.716L18.105 14.738C18.2731 14.5694 18.3756 14.3464 18.394 14.109H18.401C18.401 14.109 18.401 14.036 18.401 14.001C18.3865 13.7475 18.2798 13.5081 18.101 13.328C17.9195 13.1493 17.6792 13.0427 17.425 13.028V13.028C17.389 13.0255 17.3529 13.0255 17.317 13.028H6.51697C6.24354 13.028 5.9813 13.1366 5.78795 13.33C5.5946 13.5233 5.48597 13.7856 5.48597 14.059C5.48597 14.3324 5.5946 14.5947 5.78795 14.788C5.9813 14.9814 6.24354 15.09 6.51697 15.09L14.956 15.078L13.734 16.315C13.6413 16.4065 13.5678 16.5155 13.5174 16.6356C13.4671 16.7558 13.4411 16.8846 13.4408 17.0149C13.4405 17.1451 13.466 17.2741 13.5158 17.3944C13.5656 17.5148 13.6387 17.6241 13.731 17.716V17.716Z" fill="white" stroke="white" stroke-width="0.25" stroke-linecap="round" stroke-linejoin="round"/>
</svg>
