<svg width="32" height="32" viewBox="0 0 32 32" fill="none" xmlns="http://www.w3.org/2000/svg">
<path d="M16 32C24.8366 32 32 24.8366 32 16C32 7.16344 24.8366 0 16 0C7.16344 0 0 7.16344 0 16C0 24.8366 7.16344 32 16 32Z" fill="#325BAF"/>
<path d="M19.518 21.187C18.458 21.9307 17.1939 22.3285 15.899 22.326H15.87C15.781 22.326 15.691 22.326 15.601 22.32C15.524 22.3168 15.4471 22.3287 15.3747 22.3552C15.3023 22.3817 15.2358 22.4222 15.1791 22.4744C15.0645 22.5798 14.9965 22.7264 14.99 22.882C14.9835 23.0375 15.0391 23.1893 15.1445 23.3039C15.2499 23.4185 15.3965 23.4865 15.552 23.493C15.657 23.493 15.764 23.5 15.869 23.5H15.898C17.4333 23.5032 18.9321 23.0317 20.189 22.15C20.3129 22.0595 20.3965 21.9241 20.4219 21.7728C20.4472 21.6214 20.4123 21.4662 20.3245 21.3403C20.2368 21.2144 20.1033 21.1278 19.9525 21.0992C19.8018 21.0705 19.6458 21.102 19.518 21.187V21.187ZM11.223 20.287C11.1705 20.2305 11.1073 20.1849 11.0372 20.1529C10.9671 20.1208 10.8913 20.1029 10.8142 20.1001C10.7371 20.0973 10.6603 20.1097 10.588 20.1366C10.5157 20.1636 10.4495 20.2044 10.393 20.257C10.3365 20.3095 10.291 20.3726 10.2589 20.4428C10.2268 20.5129 10.2089 20.5887 10.2061 20.6658C10.2033 20.7428 10.2157 20.8197 10.2427 20.892C10.2696 20.9642 10.3105 21.0305 10.363 21.087C10.495 21.23 10.635 21.37 10.777 21.502C10.8913 21.6081 11.0431 21.6644 11.1989 21.6586C11.3548 21.6528 11.5019 21.5853 11.608 21.471C11.7141 21.3567 11.7704 21.2049 11.7646 21.0491C11.7588 20.8932 11.6913 20.7461 11.577 20.64C11.453 20.529 11.335 20.411 11.223 20.29V20.287ZM9.93501 18.187C9.90815 18.1147 9.86733 18.0485 9.81488 17.9921C9.76243 17.9356 9.69937 17.89 9.62931 17.858C9.55925 17.8259 9.48355 17.8079 9.40655 17.8051C9.32954 17.8023 9.25273 17.8146 9.18051 17.8415C9.10828 17.8683 9.04205 17.9091 8.9856 17.9616C8.92914 18.0141 8.88358 18.0771 8.85149 18.1472C8.81941 18.2172 8.80144 18.2929 8.79861 18.3699C8.79578 18.4469 8.80815 18.5237 8.83501 18.596C8.90301 18.779 8.97901 18.961 9.06101 19.138C9.12651 19.2789 9.24534 19.3881 9.39133 19.4415C9.53733 19.4948 9.69854 19.488 9.83951 19.4225C9.98047 19.357 10.0896 19.2381 10.143 19.0921C10.1963 18.9462 10.1895 18.7849 10.124 18.644C10.056 18.5 9.99201 18.346 9.93501 18.192V18.187ZM13.67 21.932C13.516 21.875 13.362 21.811 13.213 21.741C13.0725 21.6805 12.914 21.6772 12.7712 21.7319C12.6283 21.7865 12.5124 21.8947 12.4482 22.0335C12.3839 22.1723 12.3764 22.3307 12.4272 22.475C12.4779 22.6193 12.583 22.738 12.72 22.806C12.897 22.888 13.079 22.964 13.262 23.032C13.4063 23.0796 13.5635 23.0694 13.7005 23.0036C13.8375 22.9377 13.9436 22.8212 13.9964 22.6787C14.0493 22.5362 14.0448 22.3787 13.9839 22.2395C13.923 22.1002 13.8105 21.99 13.67 21.932V21.932Z" fill="#F1F3F4" stroke="#F1F3F4" stroke-width="0.6" stroke-linecap="square"/>
<path d="M23.501 15.928V15.957C23.4968 17.3702 23.088 18.7527 22.323 19.941C22.2388 20.0712 22.1065 20.1629 21.9549 20.1961C21.8034 20.2292 21.6449 20.2012 21.514 20.118C21.3846 20.0353 21.2933 19.9046 21.2599 19.7547C21.2266 19.6048 21.2539 19.4478 21.336 19.318C21.9465 18.3691 22.2893 17.2729 22.3283 16.1452C22.3672 15.0176 22.1009 13.9003 21.5574 12.9115C21.0139 11.9227 20.2134 11.0991 19.2404 10.5276C18.2675 9.9562 17.1583 9.65815 16.03 9.665C14.9449 9.66674 13.8782 9.94573 12.9312 10.4755C11.9842 11.0053 11.1883 11.7682 10.619 12.692H11.958C12.0365 12.6887 12.1149 12.7014 12.1884 12.7292C12.2619 12.757 12.329 12.7994 12.3858 12.8538C12.4425 12.9082 12.4876 12.9735 12.5184 13.0458C12.5492 13.1181 12.5651 13.1959 12.5651 13.2745C12.5651 13.3531 12.5492 13.4309 12.5184 13.5032C12.4876 13.5755 12.4425 13.6408 12.3858 13.6952C12.329 13.7496 12.2619 13.792 12.1884 13.8198C12.1149 13.8476 12.0365 13.8603 11.958 13.857V13.857H10.244C10.0162 13.8591 9.79034 13.816 9.57937 13.7302C9.36841 13.6444 9.17657 13.5175 9.015 13.357C8.84943 13.1926 8.7186 12.9967 8.6303 12.7807C8.542 12.5648 8.49803 12.3333 8.501 12.1V10.422C8.501 10.2666 8.56273 10.1175 8.67263 10.0076C8.78253 9.89774 8.93158 9.836 9.087 9.836C9.24241 9.836 9.39146 9.89774 9.50136 10.0076C9.61126 10.1175 9.673 10.2666 9.673 10.422V12C10.2741 11.049 11.0811 10.2451 12.0344 9.64763C12.9877 9.0502 14.0631 8.67451 15.181 8.54829C16.299 8.42207 17.431 8.54853 18.4935 8.91836C19.5561 9.28818 20.522 9.89192 21.32 10.685C22.0106 11.3724 22.5588 12.1894 22.933 13.0891C23.3073 13.9888 23.5003 14.9536 23.501 15.928V15.928Z" fill="#9AC0FA" stroke="#9AC0FA" stroke-width="0.6" stroke-linecap="square"/>
</svg>
