<svg width="22" height="24" viewBox="0 0 22 24" fill="none" xmlns="http://www.w3.org/2000/svg">
<path d="M10.8601 11.547C11.6211 11.558 12.3764 11.4137 13.0798 11.1229C13.7832 10.8322 14.4199 10.4011 14.9511 9.85603C15.4963 9.32656 15.9276 8.69129 16.2186 7.98919C16.5095 7.28709 16.654 6.53295 16.6431 5.77303C16.6528 5.01271 16.507 4.25843 16.2146 3.55648C15.9223 2.85454 15.4896 2.21974 14.9431 1.69103C13.8572 0.608157 12.3862 6.10352e-05 10.8526 6.10352e-05C9.31903 6.10352e-05 7.84803 0.608157 6.76211 1.69103C6.21561 2.21974 5.78292 2.85454 5.49059 3.55648C5.19826 4.25843 5.05244 5.01271 5.0621 5.77303C5.05238 6.53336 5.19817 7.28766 5.49051 7.98961C5.78284 8.69156 6.21557 9.32636 6.76211 9.85503C7.29421 10.4009 7.93208 10.8325 8.63669 11.1234C9.34131 11.4144 10.0979 11.5585 10.8601 11.547V11.547Z" fill="white"/>
<path d="M20.9751 18.462C20.9375 17.9539 20.8728 17.4482 20.7811 16.947C20.6903 16.4317 20.5657 15.9229 20.4081 15.424C20.2486 14.9303 20.0385 14.4544 19.7811 14.004C19.5274 13.5504 19.209 13.136 18.8361 12.774C18.4428 12.4048 17.9816 12.1155 17.4781 11.922C16.9253 11.7094 16.3373 11.6032 15.7451 11.609C15.3991 11.6465 15.072 11.7857 14.8051 12.009C14.5231 12.192 14.1941 12.409 13.8261 12.639C13.4286 12.8762 13.0034 13.0633 12.5601 13.196C11.5537 13.5298 10.4664 13.5298 9.46006 13.196C9.01701 13.0633 8.59211 12.8762 8.19506 12.639C7.83106 12.407 7.50106 12.194 7.21506 12.008C6.9485 11.7848 6.62173 11.6455 6.27606 11.608C5.68375 11.6023 5.09572 11.7089 4.54306 11.922C4.03949 12.1154 3.57828 12.4047 3.18506 12.774C2.8121 13.136 2.49377 13.5504 2.24006 14.004C1.98271 14.4545 1.7726 14.9303 1.61306 15.424C1.45552 15.923 1.33091 16.4317 1.24006 16.947C1.14825 17.4482 1.08349 17.9539 1.04606 18.462C1.01406 18.921 0.998061 19.397 0.998061 19.878C0.973294 20.4355 1.06609 20.9919 1.27042 21.5112C1.47475 22.0305 1.78604 22.5009 2.18406 22.892C3.01449 23.65 4.11068 24.0493 5.23406 24.003H16.7901C17.9135 24.0494 19.0097 23.6501 19.8401 22.892C20.2376 22.501 20.5484 22.0308 20.7524 21.5119C20.9564 20.993 21.0489 20.437 21.0241 19.88C21.0231 19.392 21.0071 18.918 20.9751 18.462Z" fill="white"/>
</svg>
