<svg width="32" height="32" viewBox="0 0 32 32" fill="none" xmlns="http://www.w3.org/2000/svg">
<path d="M16 32C24.8366 32 32 24.8366 32 16C32 7.16344 24.8366 0 16 0C7.16344 0 0 7.16344 0 16C0 24.8366 7.16344 32 16 32Z" fill="#325BAF"/>
<path d="M12.173 12.349C12.1749 12.3202 12.1711 12.2914 12.1619 12.2641C12.1526 12.2368 12.138 12.2116 12.119 12.19L10.382 10.213C10.363 10.1912 10.3399 10.1735 10.314 10.1607C10.2882 10.1479 10.26 10.1404 10.2312 10.1385C10.2024 10.1367 10.1735 10.1405 10.1462 10.1499C10.1189 10.1592 10.0937 10.1739 10.072 10.193C9.27637 10.8913 8.60957 11.724 8.10203 12.653C8.08779 12.6783 8.07874 12.7063 8.07541 12.7352C8.07209 12.764 8.07454 12.7933 8.08264 12.8212C8.09074 12.8492 8.10432 12.8752 8.12258 12.8978C8.14085 12.9204 8.16344 12.9392 8.18903 12.953L10.498 14.215C10.5234 14.2292 10.5513 14.2383 10.5802 14.2416C10.6091 14.2449 10.6383 14.2425 10.6663 14.2344C10.6942 14.2263 10.7202 14.2127 10.7428 14.1944C10.7655 14.1762 10.7842 14.1536 10.798 14.128C11.1329 13.5141 11.5729 12.9638 12.098 12.502C12.1201 12.4828 12.1381 12.4594 12.151 12.4331C12.1639 12.4068 12.1714 12.3782 12.173 12.349V12.349Z" fill="#9AC0FA" stroke="#325BAF" stroke-width="0.25" stroke-linecap="round" stroke-linejoin="round"/>
<path d="M12.926 11.629C12.9394 11.6549 12.9579 11.6779 12.9804 11.6966C13.0029 11.7153 13.0288 11.7293 13.0568 11.7377C13.0847 11.7462 13.1141 11.749 13.1432 11.746C13.1722 11.7429 13.2004 11.7341 13.226 11.72C13.8428 11.3923 14.5128 11.1766 15.205 11.083C15.2336 11.0792 15.2611 11.0698 15.2861 11.0553C15.311 11.0408 15.3328 11.0215 15.3503 10.9986C15.3677 10.9756 15.3805 10.9495 15.3878 10.9216C15.3952 10.8937 15.3969 10.8646 15.393 10.836L15.039 8.22801C15.031 8.17039 15.0006 8.11825 14.9543 8.08302C14.908 8.04779 14.8496 8.03233 14.792 8.04002C13.7427 8.18262 12.727 8.51001 11.792 9.00701C11.766 9.02046 11.7431 9.03897 11.7244 9.06144C11.7057 9.08391 11.6917 9.10988 11.6833 9.13784C11.6748 9.16579 11.672 9.19517 11.675 9.22422C11.6781 9.25327 11.6869 9.28142 11.701 9.30701L12.926 11.629Z" fill="#9AC0FA" stroke="#325BAF" stroke-width="0.25" stroke-linecap="round" stroke-linejoin="round"/>
<path d="M10.123 15.124L7.583 14.435C7.55523 14.4275 7.52623 14.4254 7.49767 14.4291C7.46912 14.4327 7.44156 14.4419 7.41657 14.4563C7.39159 14.4706 7.36967 14.4897 7.35207 14.5124C7.33447 14.5352 7.32153 14.5612 7.314 14.589C7.10501 15.362 6.99942 16.1593 7 16.96C7 17.098 7 17.235 7.01 17.382C7.01258 17.4384 7.03678 17.4915 7.07758 17.5305C7.11837 17.5694 7.17261 17.5911 7.229 17.591H7.239L9.868 17.47C9.89677 17.4687 9.92501 17.4618 9.95109 17.4496C9.97717 17.4374 10.0006 17.4201 10.02 17.3989C10.0394 17.3776 10.0544 17.3527 10.0642 17.3256C10.074 17.2986 10.0783 17.2698 10.077 17.241C10.077 17.141 10.07 17.051 10.07 16.961C10.0698 16.4318 10.1397 15.9049 10.278 15.394C10.2857 15.3661 10.2878 15.337 10.2842 15.3082C10.2805 15.2795 10.2712 15.2518 10.2568 15.2267C10.2424 15.2016 10.2232 15.1796 10.2002 15.162C10.1772 15.1443 10.151 15.1315 10.123 15.124V15.124Z" fill="#9AC0FA" stroke="#325BAF" stroke-width="0.25" stroke-linecap="round" stroke-linejoin="round"/>
<path d="M19.907 8.85099C18.9522 8.39028 17.9233 8.10248 16.868 8.00098C16.8392 7.99824 16.81 8.00126 16.7824 8.00985C16.7547 8.01844 16.729 8.03244 16.7067 8.05105C16.6845 8.06965 16.6662 8.09249 16.6528 8.11822C16.6395 8.14396 16.6314 8.1721 16.629 8.20099L16.375 10.82C16.3723 10.8488 16.3753 10.878 16.3839 10.9057C16.3925 10.9333 16.4065 10.959 16.4251 10.9813C16.4437 11.0035 16.4665 11.0218 16.4923 11.0352C16.518 11.0485 16.5461 11.0566 16.575 11.059C17.2695 11.1261 17.9466 11.3157 18.575 11.619C18.6271 11.6446 18.6873 11.6484 18.7422 11.6296C18.7972 11.6109 18.8424 11.5711 18.868 11.519L20.011 9.14799C20.0242 9.12174 20.0319 9.09312 20.0338 9.06383C20.0357 9.03453 20.0316 9.00516 20.0219 8.97745C20.0122 8.94975 19.9971 8.92427 19.9773 8.90255C19.9576 8.88082 19.9337 8.86329 19.907 8.85099V8.85099Z" fill="#9AC0FA" stroke="#325BAF" stroke-width="0.25" stroke-linecap="round" stroke-linejoin="round"/>
<path d="M23.7499 12.519C23.757 12.4911 23.7586 12.4621 23.7545 12.4336C23.7503 12.4051 23.7407 12.3777 23.726 12.353C23.1833 11.4445 22.4854 10.6382 21.6639 9.97101C21.6189 9.93442 21.5611 9.91723 21.5033 9.92323C21.4456 9.92923 21.3926 9.95793 21.356 10.003L19.6949 12.045C19.6767 12.0674 19.663 12.0931 19.6547 12.1208C19.6464 12.1484 19.6437 12.1774 19.6467 12.2062C19.6496 12.2349 19.6583 12.2627 19.6721 12.2881C19.6858 12.3135 19.7045 12.3359 19.727 12.354C20.2704 12.7954 20.7321 13.3289 21.0909 13.93C21.1207 13.9798 21.169 14.0158 21.2252 14.0301C21.2815 14.0443 21.3411 14.0357 21.391 14.006L23.6499 12.656C23.6748 12.6409 23.6965 12.621 23.7137 12.5975C23.7309 12.574 23.7432 12.5473 23.7499 12.519Z" fill="#9AC0FA" stroke="#325BAF" stroke-width="0.25" stroke-linecap="round" stroke-linejoin="round"/>
<path d="M24.588 14.257C24.5794 14.2295 24.5655 14.2039 24.547 14.1817C24.5286 14.1596 24.5059 14.1413 24.4804 14.1279C24.4548 14.1145 24.4269 14.1063 24.3981 14.1038C24.3694 14.1012 24.3405 14.1044 24.313 14.113L21.8019 14.9C21.7744 14.9086 21.7488 14.9225 21.7267 14.9409C21.7045 14.9594 21.6862 14.982 21.6728 15.0076C21.6594 15.0332 21.6512 15.0611 21.6487 15.0898C21.6461 15.1186 21.6493 15.1475 21.658 15.175C21.8387 15.7531 21.9304 16.3553 21.9299 16.961C21.9299 17.051 21.9299 17.142 21.9229 17.241C21.9216 17.2698 21.926 17.2985 21.9357 17.3256C21.9455 17.3527 21.9605 17.3776 21.98 17.3989C21.9994 17.4201 22.0228 17.4374 22.0489 17.4496C22.0749 17.4618 22.1032 17.4688 22.132 17.47L24.761 17.591H24.7709C24.8273 17.5911 24.8816 17.5694 24.9224 17.5305C24.9632 17.4915 24.9874 17.4384 24.99 17.382C24.997 17.236 24.9999 17.098 24.9999 16.96C25.0005 16.0433 24.8616 15.1319 24.588 14.257V14.257Z" fill="#9AC0FA" stroke="#325BAF" stroke-width="0.25" stroke-linecap="round" stroke-linejoin="round"/>
<path d="M17.0789 18.7844C17.0414 18.7778 17.005 18.7714 16.9676 18.7648L13.8244 16.0765C13.787 16.0448 13.7403 16.0262 13.6913 16.0234C13.6424 16.0206 13.5939 16.0338 13.5531 16.0609C13.5123 16.0881 13.4814 16.1278 13.4651 16.1741C13.4489 16.2203 13.4481 16.2706 13.4629 16.3173L14.7431 20.2428C14.7237 20.3109 14.7077 20.38 14.6953 20.4497C14.6245 20.8504 14.6742 21.2632 14.8379 21.6357C15.0017 22.0082 15.2723 22.3238 15.6154 22.5426C15.9586 22.7613 16.3589 22.8734 16.7657 22.8647C17.1726 22.8559 17.5677 22.7267 17.9011 22.4934C18.2345 22.2601 18.4913 21.9332 18.6389 21.5539C18.7865 21.1747 18.8183 20.7602 18.7304 20.3629C18.6424 19.9656 18.4386 19.6033 18.1447 19.3218C17.8509 19.0403 17.4801 18.8522 17.0794 18.7815L17.0789 18.7844Z" fill="#F1F3F4"/>
</svg>
