<svg width="20" height="21" viewBox="0 0 20 21" fill="none" xmlns="http://www.w3.org/2000/svg">
<path opacity="0.15" d="M6.53 17.347H4.693C4.27807 17.347 3.88014 17.1822 3.58673 16.8888C3.29333 16.5954 3.1285 16.1974 3.1285 15.7825C3.1285 15.3676 3.29333 14.9696 3.58673 14.6762C3.88014 14.3828 4.27807 14.218 4.693 14.218H7.04C6.67137 14.2184 6.31473 14.349 6.03293 14.5867C5.75114 14.8243 5.56227 15.1538 5.49964 15.5171C5.437 15.8804 5.50461 16.2541 5.69054 16.5724C5.87648 16.8907 6.16881 17.1331 6.516 17.257C6.52067 17.2843 6.52567 17.3117 6.531 17.339L6.53 17.347ZM5.502 8.03901C5.46093 8.11897 5.40165 8.18816 5.32893 8.24102C5.25622 8.29387 5.17211 8.32891 5.08338 8.34331C4.99465 8.35771 4.90377 8.35107 4.81808 8.32392C4.73238 8.29677 4.65426 8.24987 4.59 8.18701L3.453 7.05901C3.35005 6.95676 3.26835 6.83517 3.21259 6.70121C3.15683 6.56726 3.12813 6.4236 3.12813 6.27851C3.12813 6.13341 3.15683 5.98975 3.21259 5.8558C3.26835 5.72185 3.35005 5.60025 3.453 5.49801L4.59 4.37001C4.65928 4.30211 4.74466 4.2529 4.83815 4.22701C4.93163 4.20112 5.03016 4.19939 5.1245 4.22197C5.21883 4.24456 5.30589 4.29072 5.37752 4.35614C5.44914 4.42156 5.50298 4.50409 5.534 4.596H6.061V3.01701C6.05922 2.7737 5.98583 2.53631 5.85001 2.33445C5.71418 2.13258 5.52193 1.97517 5.29723 1.88186C5.07252 1.78854 4.82532 1.76345 4.58645 1.80971C4.34758 1.85598 4.12762 1.97155 3.954 2.14201L1.486 4.58801C1.26263 4.80995 1.08535 5.07388 0.964378 5.36461C0.843407 5.65533 0.781128 5.96711 0.781128 6.28201C0.781128 6.5969 0.843407 6.90868 0.964378 7.1994C1.08535 7.49013 1.26263 7.75406 1.486 7.97601L3.955 10.417C4.12862 10.5875 4.34858 10.703 4.58745 10.7493C4.82632 10.7956 5.07352 10.7705 5.29823 10.6772C5.52293 10.5838 5.71518 10.4264 5.85101 10.2246C5.98683 10.0227 6.06022 9.78531 6.062 9.54201V8.03901H5.502Z" fill="#325BAF"/>
<path d="M15.205 21C14.6727 20.9976 14.1631 20.7841 13.7881 20.4063C13.4131 20.0285 13.2034 19.5173 13.205 18.985V17.326C13.205 17.1189 13.2873 16.9202 13.4338 16.7738C13.5802 16.6273 13.7789 16.545 13.986 16.545C14.1931 16.545 14.3918 16.6273 14.5383 16.7738C14.6847 16.9202 14.767 17.1189 14.767 17.326V18.985C14.7635 19.0736 14.7874 19.1612 14.8356 19.2357C14.8837 19.3101 14.9537 19.3679 15.036 19.401C15.1143 19.4345 15.2011 19.4428 15.2844 19.4249C15.3677 19.407 15.4433 19.3637 15.501 19.301L17.966 16.858C18.1163 16.7093 18.2356 16.5322 18.317 16.337C18.3984 16.1418 18.4403 15.9325 18.4403 15.721C18.4403 15.5096 18.3984 15.3002 18.317 15.105C18.2356 14.9099 18.1163 14.7328 17.966 14.584L15.499 12.144C15.4413 12.0813 15.3657 12.0381 15.2824 12.0201C15.1991 12.0022 15.1123 12.0106 15.034 12.044C14.9517 12.0772 14.8817 12.1349 14.8336 12.2094C14.7854 12.2839 14.7615 12.3714 14.765 12.46V14.2C14.765 14.3026 14.7448 14.4041 14.7056 14.4989C14.6663 14.5937 14.6088 14.6798 14.5363 14.7523C14.4637 14.8248 14.3776 14.8823 14.2829 14.9216C14.1881 14.9608 14.0866 14.981 13.984 14.981H4.689C4.48187 14.981 4.28322 15.0633 4.13675 15.2098C3.99029 15.3562 3.908 15.5549 3.908 15.762C3.908 15.9692 3.99029 16.1678 4.13675 16.3143C4.28322 16.4607 4.48187 16.543 4.689 16.543H5.939C6.14614 16.543 6.34479 16.6253 6.49126 16.7718C6.63772 16.9182 6.72001 17.1169 6.72001 17.324C6.72001 17.5312 6.63772 17.7298 6.49126 17.8763C6.34479 18.0227 6.14614 18.105 5.939 18.105H4.689C4.37718 18.1115 4.0672 18.0556 3.77724 17.9407C3.48727 17.8259 3.22315 17.6543 3.00034 17.436C2.77753 17.2178 2.60052 16.9572 2.47968 16.6697C2.35884 16.3822 2.29659 16.0734 2.29659 15.7615C2.29659 15.4496 2.35884 15.1409 2.47968 14.8533C2.60052 14.5658 2.77753 14.3053 3.00034 14.087C3.22315 13.8688 3.48727 13.6972 3.77724 13.5823C4.0672 13.4674 4.37718 13.4116 4.689 13.418H13.204V12.462C13.2017 12.0651 13.3175 11.6765 13.5367 11.3457C13.7559 11.0148 14.0686 10.7566 14.435 10.604C14.7973 10.4496 15.1978 10.408 15.5842 10.4845C15.9705 10.561 16.3249 10.7522 16.601 11.033L19.066 13.476C19.3623 13.7703 19.5975 14.1203 19.758 14.5058C19.9185 14.8914 20.0011 15.3049 20.0011 15.7225C20.0011 16.1402 19.9185 16.5536 19.758 16.9392C19.5975 17.3248 19.3623 17.6748 19.066 17.969L16.599 20.414C16.4166 20.5986 16.1996 20.7454 15.9604 20.846C15.7212 20.9465 15.4645 20.9989 15.205 21ZM5.59501 11.386C5.96422 11.2375 6.28012 10.9812 6.50149 10.6505C6.72286 10.3197 6.83943 9.92998 6.83601 9.53203V8.65403H15.312C15.9252 8.64136 16.5089 8.38889 16.9381 7.95078C17.3672 7.51267 17.6076 6.92381 17.6076 6.31053C17.6076 5.69724 17.3672 5.10839 16.9381 4.67027C16.5089 4.23216 15.9252 3.97969 15.312 3.96703H6.83601V3.01103C6.83943 2.61307 6.72286 2.22332 6.50149 1.8926C6.28012 1.56188 5.96422 1.30555 5.59501 1.15703C5.22753 1.00149 4.82208 0.958849 4.43029 1.03454C4.0385 1.11022 3.6781 1.30081 3.395 1.58203L0.935005 4.02503C0.638671 4.3193 0.403485 4.66929 0.242994 5.05485C0.082503 5.4404 -0.00012207 5.8539 -0.00012207 6.27153C-0.00012207 6.68915 0.082503 7.10265 0.242994 7.4882C0.403485 7.87376 0.638671 8.22375 0.935005 8.51803L3.40001 10.961C3.7754 11.3344 4.28354 11.5437 4.813 11.543C5.08149 11.5429 5.34728 11.4895 5.59501 11.386V11.386ZM4.98901 2.60003C5.07206 2.63193 5.14334 2.68853 5.19323 2.7622C5.24312 2.83587 5.26922 2.92306 5.268 3.01203V4.74803C5.268 4.95516 5.35029 5.15381 5.49675 5.30028C5.64322 5.44674 5.84187 5.52903 6.04901 5.52903H15.306C15.5131 5.52903 15.7118 5.61131 15.8583 5.75778C16.0047 5.90424 16.087 6.10289 16.087 6.31003C16.087 6.51716 16.0047 6.71581 15.8583 6.86228C15.7118 7.00874 15.5131 7.09103 15.306 7.09103H6.05401C5.84687 7.09103 5.64822 7.17331 5.50175 7.31978C5.35529 7.46624 5.27301 7.66489 5.27301 7.87203V9.53203C5.27131 9.62082 5.24372 9.70718 5.19363 9.78051C5.14354 9.85385 5.07313 9.91096 4.99104 9.94483C4.90895 9.97871 4.81875 9.98788 4.73152 9.97122C4.64429 9.95455 4.56383 9.91278 4.50001 9.85103L2.03501 7.40803C1.88474 7.25925 1.76545 7.08216 1.68404 6.887C1.60263 6.69185 1.56072 6.48248 1.56072 6.27103C1.56072 6.05957 1.60263 5.85021 1.68404 5.65505C1.76545 5.45989 1.88474 5.2828 2.03501 5.13403L4.50001 2.69103C4.53938 2.64975 4.5867 2.61687 4.63912 2.59436C4.69153 2.57185 4.74796 2.56017 4.80501 2.56003C4.86832 2.56159 4.93076 2.57516 4.98901 2.60003V2.60003Z" fill="#325BAF"/>
<path d="M11.012 18.103H8.90004C8.69264 18.103 8.49375 18.0206 8.34709 17.874C8.20044 17.7273 8.11804 17.5284 8.11804 17.321C8.11804 17.1136 8.20044 16.9147 8.34709 16.7681C8.49375 16.6214 8.69264 16.539 8.90004 16.539H11.012C11.2194 16.539 11.4183 16.6214 11.565 16.7681C11.7117 16.9147 11.7941 17.1136 11.7941 17.321C11.7941 17.5284 11.7117 17.7273 11.565 17.874C11.4183 18.0206 11.2194 18.103 11.012 18.103Z" fill="#23CEFD"/>
</svg>
