<svg xmlns="http://www.w3.org/2000/svg" width="256" height="256"><path fill-opacity=".016" d="M0 128.004v128.004l128.25-.254 128.25-.254.254-127.75L257.008 0H0v128.004m.485.496c0 70.4.119 99.053.265 63.672.146-35.38.146-92.98 0-128C.604 29.153.485 58.1.485 128.5" fill="#1976D2" fill-rule="evenodd"/><path fill-opacity=".059" d="M103.362 4.5c.578 1.506.05 1.616-9.683 2.001-1.552.062-3.171.677-3.597 1.367-.427.69-2.982 1.59-5.679 2-2.966.452-4.804 1.218-4.653 1.94.137.655-.875 1.248-2.25 1.317-4.343.217-5.006.437-4.778 1.587.123.617-1.596 1.429-3.819 1.804-2.223.376-4.284 1.313-4.58 2.084-.295.77-1.016 1.4-1.601 1.4-.586 0-1.848.709-2.806 1.576-.957.866-2.375 1.668-3.15 1.782-.775.114-2.952 1.656-4.837 3.427-1.886 1.771-4.223 3.476-5.194 3.79-.97.313-1.506.987-1.191 1.497.316.51.097.984-.485 1.053-.582.069-1.621.202-2.309.295-.687.094-1.137.713-1 1.375.231 1.112-1.056 1.652-3.086 1.295-.46-.081-1.064.724-1.343 1.789-.278 1.065-1.377 2.164-2.442 2.442-1.065.279-1.811 1.088-1.658 1.797.154.71-.396 1.312-1.221 1.337-.825.025-1.556.608-1.625 1.295-.069.688-.181 1.7-.25 2.25s-.628.887-1.242.75c-.615-.138-1.25.538-1.412 1.501-.349 2.074-4.581 7.321-5.871 7.279-.496-.017-1.069 1.071-1.274 2.418-.206 1.346-1.038 3.181-1.85 4.078-.812.897-1.476 2.185-1.476 2.862 0 .676-.429.965-.953.641-.525-.324-1.441 1.219-2.036 3.429s-1.562 3.911-2.149 3.78c-.587-.131-1.225 1.082-1.416 2.695-.192 1.613-1.045 3.323-1.897 3.8-.889.497-1.556 2.23-1.564 4.067-.017 3.472-1.212 6.07-2.545 5.535-.461-.184-.885 1.015-.944 2.665-.307 8.656-.484 9.442-1.996 8.862C.19 100.859 0 104.11 0 127c0 21.866.229 26.126 1.379 25.685 1.007-.386 1.516.687 1.887 3.98.279 2.48.919 4.92 1.422 5.423.914.914 13.312-10.457 13.312-12.21 0-.483.542-.765 1.205-.628.662.138 1.245-.425 1.295-1.25.05-.825.672-1.375 1.382-1.221.709.153 1.529-.635 1.821-1.75.292-1.116 1.153-2.029 1.914-2.029.76 0 1.383-.623 1.383-1.383 0-.761.913-1.622 2.029-1.914 1.115-.292 1.962-.907 1.881-1.367-.358-2.036.172-3.403 1.098-2.831.555.343 1.365-.339 1.8-1.515.435-1.176 1.219-2.105 1.742-2.064.522.041.95-.488.95-1.176 0-.687.563-1.25 1.25-1.25.688 0 1.138-.29 1-.645-.423-1.091 3.461-4.842 4.408-4.257.491.303.768-.025.617-.728-.151-.704.4-1.32 1.225-1.37.825-.05 1.405-.582 1.288-1.181-.237-1.218 1.144-2.729 21.306-23.319 7.81-7.975 14.583-14.612 15.053-14.75.469-.138.873-.812.898-1.5.025-.687.6-1.133 1.278-.991.678.143 1.533-.523 1.9-1.479.367-.956 3.429-4.447 6.804-7.759 3.376-3.312 6.424-6.808 6.774-7.771.35-.963 1.352-1.75 2.227-1.75.874 0 1.316-.443.982-.984-.598-.967 4.261-6.276 8.057-8.803 1.063-.708 1.258-.952.433-.543-.825.41 1.875-2.723 6-6.961s8.287-7.707 9.25-7.708c1.877-.001 6.25 3.846 6.25 5.499 0 .55.675 1.02 1.5 1.045.825.025 1.375.627 1.221 1.337-.153.709.593 1.518 1.658 1.797 1.065.278 2.164 1.377 2.442 2.442.279 1.065 1.088 1.811 1.797 1.658.71-.154 1.312.396 1.337 1.221.025.825.495 1.509 1.045 1.52.84.017 7.635 6.789 23.75 23.669 1.512 1.584 2.75 3.389 2.75 4.012 0 .623.272.86.605.527.608-.608 1.398.167 10.473 10.272 7.017 7.812 7.991 9 7.383 9-.297 0 .04.632.75 1.404.709.773 1.719 1.335 2.244 1.25.525-.085.975.521 1 1.346.025.825.72 1.52 1.545 1.545.825.025 1.375.627 1.221 1.337-.153.709.629 1.528 1.739 1.818 1.11.29 1.803.875 1.54 1.3-.532.861 1.446 2.783 3 2.915.55.047 1 .648 1 1.335 0 .688.675 1.27 1.5 1.295.825.025 1.375.627 1.221 1.337-.153.709.635 1.529 1.75 1.821 1.116.292 2.029.851 2.029 1.243 0 .392 3.65 4.502 8.112 9.134l14.75 15.308c3.651 3.788 5.963 6.567 5.138 6.176-.825-.392-.626-.004.441.862 1.068.866 1.613 1.574 1.211 1.574-.402 0-.151.632.559 1.404.709.773 1.719 1.335 2.244 1.25.525-.085.995.521 1.045 1.346.05.825.633 1.387 1.295 1.25 1.082-.224 1.384.429 1.115 2.41-.146 1.079 3.024 2.499 4.098 1.835.546-.337.992-1.261.992-2.054 0-.793.549-1.329 1.22-1.191.79.162 1.245-1.161 1.291-3.75.162-9.171.511-11.877 1.412-10.95.508.522 1.115 2.3 1.35 3.95.235 1.65.449-8.925.475-23.5.026-14.767-.299-25.039-.734-23.199-.43 1.815-1.059 3.578-1.398 3.916-.554.554-.727-.959-1.123-9.851-.065-1.448-.877-3.393-1.805-4.321-1.016-1.016-1.688-3.265-1.688-5.648 0-2.474-.526-4.162-1.402-4.498-.771-.295-1.691-2.081-2.045-3.968-.354-1.887-1.073-3.431-1.598-3.431-.525 0-.955-.614-.955-1.365s-.927-2.544-2.061-3.985c-1.134-1.442-2.127-3.496-2.208-4.566-.08-1.07-.506-1.723-.946-1.451-.79.488-1.757-1.234-2.134-3.805-.107-.73-.489-1.328-.848-1.328s-1.795-1.682-3.19-3.738-4.535-5.737-6.978-8.18c-2.443-2.443-4.185-4.698-3.872-5.012.314-.313.091-.57-.494-.57-.586 0-3.894-2.7-7.351-6s-6.68-6-7.161-6c-.481 0-.627-.402-.323-.893.304-.492-.57-1.175-1.941-1.519-1.371-.345-2.493-1.319-2.493-2.166s-.338-1.341-.75-1.098c-1.286.757-5.412-1.252-4.755-2.316.343-.554-.304-1.008-1.436-1.008S193 19.475 193 18.833c0-.641-.284-.882-.631-.535-.348.347-1.573-.028-2.723-.833-1.15-.806-2.891-1.465-3.869-1.465-.977 0-1.664-.542-1.527-1.205.256-1.231-.371-1.451-4.75-1.67-1.5-.075-2.5-.725-2.5-1.625 0-1.079-1.103-1.5-3.929-1.5-2.353 0-4.605-.677-5.616-1.688-.928-.928-2.873-1.74-4.321-1.805-7.415-.331-8.072-.506-7.496-2.007.503-1.31-2.803-1.5-26.138-1.5s-26.641.19-26.138 1.5M.437 127c0 14.575.14 20.537.31 13.25.171-7.288.171-19.213 0-26.5-.17-7.288-.31-1.325-.31 13.25m122.606-2.543c-2.406 2.451-4.862 4.179-5.459 3.839-.596-.339-.749-.247-.34.204.757.835-.826 2.56-23.701 25.823-7.126 7.247-12.997 13.627-13.045 14.177-.049.55-.67.875-1.38.721-.709-.153-1.518.593-1.797 1.658-.278 1.065-1.377 2.164-2.442 2.442-1.065.279-1.811 1.088-1.658 1.797.154.71-.396 1.312-1.221 1.337-.825.025-1.52.72-1.545 1.545-.025.825-.627 1.375-1.337 1.221-.709-.153-1.528.629-1.818 1.739-.29 1.11-.814 1.845-1.164 1.634-.648-.391-3.657 2.427-3.61 3.381.046.924-2.861 3.935-3.454 3.579-.315-.189-1.152.284-1.861 1.051-.71.767-.961 1.395-.559 1.395.402 0-.143.708-1.211 1.574-1.067.866-1.266 1.243-.441.839.825-.405.422.448-.895 1.895-1.318 1.447-2.85 2.35-3.405 2.007-.555-.343-.733-.178-.396.368.803 1.299-6.673 8.591-7.777 7.587-.466-.423-.567-.276-.223.327s-.709 2.375-2.34 3.937c-3.893 3.73-3.868 6.947.069 8.983 1.668.862 2.759 2.01 2.425 2.55-.333.541-.214.859.265.708 1.163-.367 7.277 4.809 7.277 6.16 0 .586.337 1.012.75.947 2.3-.364 4.218.271 4 1.323-.138.662.2 1.247.75 1.299 2.493.236 5.48 1.719 5.006 2.487-.288.465.799 1.137 2.416 1.492s3.476 1.292 4.131 2.081c.656.79 1.989 1.436 2.962 1.436.974 0 2.032.679 2.35 1.509.319.83.929 1.42 1.357 1.31 1.794-.461 7.211 1.416 7.003 2.427-.124.603.9 1.162 2.275 1.241 6.085.35 6.986.585 6.75 1.763-.138.688.65 1.296 1.75 1.352 1.1.056 3.714.169 5.809.25 2.254.088 3.557.556 3.191 1.148-.406.657 8.509 1 26 1s26.406-.343 26-1c-.375-.607 1.272-1.058 4.191-1.148 7.951-.245 8.343-.309 9.09-1.48.395-.62 2.718-1.461 5.161-1.87 2.443-.408 5.062-1.363 5.821-2.122.759-.759 2.698-1.38 4.308-1.38 1.833 0 2.929-.52 2.929-1.389 0-.797 1.502-1.67 3.528-2.05 1.94-.364 3.264-1.089 2.941-1.612-.557-.901-.11-1.118 2.781-1.349.688-.055 2.292-1.121 3.565-2.369 1.273-1.248 2.805-1.966 3.404-1.596.635.393.805.213.408-.43-.554-.895 3.229-3.983 4.127-3.37.304.208 5.138-4.004 10.131-8.827 1.988-1.92 3.953-3.495 4.365-3.5a.762.762 0 00.75-.758V214c0-.55-.623-1-1.383-1-.761 0-1.622-.913-1.914-2.029-.292-1.115-.907-1.911-1.367-1.767-1.038.325-11.798-10.33-11.82-11.704a1.084 1.084 0 00-1.016-1.048c-.91-.044-11.468-10.622-28.869-28.927-3.647-3.836-6.631-7.522-6.631-8.191 0-.669-.52-1.537-1.155-1.929-.752-.465-.913-.224-.462.69.38.773.112.544-.596-.507-.708-1.052-2.074-2.739-3.037-3.75-.963-1.011-1.435-1.838-1.05-1.838s.138-.562-.55-1.25c-.687-.687-1.79-1.25-2.45-1.25-.66 0-1.2-.675-1.2-1.5a1.56 1.56 0 00-1.5-1.545c-.825-.025-1.375-.627-1.221-1.337.153-.709-.635-1.529-1.75-1.821-1.116-.292-2.029-.817-2.029-1.167 0-1.027-20.662-22.13-21.668-22.13-.503 0-2.884 2.005-5.289 4.457" fill="#1976D2" fill-rule="evenodd"/><path fill-opacity=".267" d="M109.206 4.75c.247 1.468-.916 1.911-7.206 2.75-4.125.55-8.483 1.563-9.684 2.25-1.202.688-3.382 1.25-4.846 1.25s-3.856.606-5.316 1.347-4.904 2.382-7.654 3.648c-2.75 1.265-5.675 2.687-6.5 3.159a25.462 25.462 0 01-3 1.425C56.982 23.603 36.439 40.924 27.734 52 23.697 57.137 18 66.021 18 67.18c0 .552-.9 2.149-2 3.547-1.1 1.399-2 3.102-2 3.785 0 .684-.675 1.803-1.5 2.488S11 79.035 11 80c0 .965-.675 2.315-1.5 3S8 85.508 8 87.051c0 1.543-.6 3.406-1.333 4.139-.732.733-1.635 4.233-2.006 7.777-.37 3.545-1.121 6.893-1.667 7.439-.659.659-.994.589-.994-.206 0-.66-.45-1.2-1-1.2-.636 0-1 7.848-1 21.544 0 19.963.128 21.522 1.75 21.25 1.438-.242 1.909.821 2.64 5.956.489 3.437 1.308 6.25 1.82 6.25.511 0 2.811-2.099 5.11-4.663 9.45-10.543 21.152-22.988 41.808-44.462 3.504-3.643 8.23-8.593 10.5-11 2.271-2.406 6.366-6.492 9.101-9.079 2.735-2.587 6.052-6.146 7.372-7.908 5.581-7.455 43.407-46.146 46.834-47.906 2.223-1.142 2.696-.956 5.422 2.134 4.909 5.563 27.427 29.42 38.143 40.41 8.047 8.252 22.618 23.48 41.75 43.631.963 1.014 1.75 2.049 1.75 2.3 0 .251 5.811 6.438 12.914 13.75 7.102 7.311 14.581 15.205 16.62 17.543 6.188 7.095 7.473 5.981 8.947-7.75 1.049-9.781 2.907-12.827 3.164-5.188.08 2.371.417 4.584.75 4.916.333.333.544-9.257.469-21.311-.075-12.055-.314-20.792-.53-19.417a102.158 102.158 0 01-.942 4.986c-.878 3.978-2.249.405-3.017-7.861-.374-4.026-1.251-7.607-2.018-8.244C249.611 94.262 249 92.065 249 90c0-2.118-.654-4.298-1.5-5-.825-.685-1.5-2.246-1.5-3.469 0-1.224-.9-3.263-2-4.531-1.1-1.268-2-2.944-2-3.724 0-.781-.675-2.094-1.5-2.919-.825-.825-1.5-2.32-1.5-3.321 0-1.002-.675-2.081-1.5-2.398-.825-.316-1.5-1.044-1.5-1.617 0-3.391-24.566-30.489-29.28-32.298-.946-.363-1.72-1.076-1.72-1.583 0-.508-1.125-1.206-2.5-1.551s-2.5-1.08-2.5-1.633c0-.553-1.125-1.433-2.5-1.956-1.375-.523-2.5-1.412-2.5-1.975 0-.564-.845-1.025-1.878-1.025-1.032 0-2.437-.675-3.122-1.5s-1.977-1.503-2.872-1.507c-.896-.003-2.978-.9-4.628-1.993s-3.957-1.99-5.128-1.993c-1.17-.004-2.687-.682-3.372-1.507-.685-.825-2.71-1.5-4.5-1.5s-3.768-.618-4.394-1.372c-.632-.762-4.137-1.668-7.873-2.037-3.703-.365-7.408-1.09-8.233-1.612-.996-.629-1.08-.954-.25-.964C149.438 5.007 150 4.55 150 4c0-.634-7.515-1-20.544-1-19.011 0-20.522.131-20.25 1.75M.426 126.5c.001 12.1.145 16.913.321 10.695.176-6.218.175-16.118-.001-22-.177-5.882-.321-.795-.32 11.305m120.312 1.892c-3.719 3.909-12.494 12.969-19.5 20.131-7.006 7.163-14.02 14.588-15.587 16.5-2.113 2.579-42.288 44.473-47.144 49.161C37.042 215.599 56.938 232 60.119 232c.519 0 1.203.675 1.519 1.5.317.825 1.142 1.5 1.834 1.5.692 0 2.402.9 3.801 2 1.398 1.1 3.498 2 4.666 2 1.168 0 2.383.675 2.699 1.5.32.834 1.806 1.5 3.347 1.5 1.523 0 3.29.626 3.925 1.391.635.765 3.165 1.693 5.622 2.062 2.457.368 4.468 1.06 4.468 1.536 0 .477 2.588 1.148 5.75 1.492 8.303.902 10.409 1.453 9.732 2.548-.38.615 6.412.971 18.518.971 12.106 0 18.898-.356 18.518-.971-.716-1.159 1.824-1.747 10.269-2.377 3.458-.258 6.879-.96 7.601-1.559.723-.6 3.401-1.376 5.952-1.726 2.551-.35 5.148-1.25 5.772-2.001.623-.751 1.979-1.366 3.014-1.366 1.035 0 3.56-.9 5.613-2 2.052-1.1 4.263-2 4.913-2 .65 0 1.331-.338 1.515-.75.398-.897 6.495-5.25 7.352-5.25.331 0 2.664-1.575 5.185-3.5 2.521-1.925 4.981-3.5 5.466-3.5.888 0 9.83-8.553 9.83-9.402 0-.25-3.263-3.75-7.252-7.776-3.988-4.027-9.794-10.247-12.901-13.822-3.108-3.575-10.532-11.509-16.499-17.632-12.938-13.277-33.612-35.199-34.428-36.505-1.223-1.962-17.351-18.856-17.871-18.721-.302.078-3.592 3.34-7.311 7.25" fill="#1976D2" fill-rule="evenodd"/><path fill-opacity=".104" d="M119.692 4.36c-.701 1.827-8.255 3.632-15.385 3.675-3.194.02-6.932.679-8.307 1.465s-3.632 1.445-5.015 1.465c-1.383.019-4.194.935-6.246 2.035-2.053 1.1-4.521 2.014-5.485 2.032-.965.017-2.628.692-3.695 1.5-1.068.807-2.7 1.468-3.628 1.468-.927 0-2.21.631-2.85 1.402-.639.771-2.378 1.707-3.862 2.079-1.484.373-2.928.979-3.209 1.348C60.998 24.16 55.057 28 54.009 28c-.589 0-1.331.675-1.647 1.5-.317.825-1.017 1.5-1.555 1.5C48.308 31 25 54.838 25 57.393c0 .642-3.863 6.495-5.02 7.607-.287.275-1.071 1.625-1.743 3-.672 1.375-1.676 3.287-2.23 4.25l-2.013 3.5c-.554.963-1.265 2.425-1.581 3.25-.316.825-1.438 3.349-2.494 5.61C8.864 86.87 8 89.473 8 90.395c0 .921-.622 2.672-1.382 3.89-.76 1.218-1.66 6.115-1.999 10.882C3.918 114.994 3.372 117 1.393 117 .3 117 0 119.047 0 126.5c0 7.422.303 9.5 1.383 9.5 1.822 0 2.485 2.695 3.27 13.285.358 4.832.942 8.965 1.297 9.184.921.569 2.286-.533 4.912-3.969 2.37-3.102 25.404-27.469 39.888-42.198 4.537-4.614 8.25-8.591 8.25-8.838 0-.248 4.388-4.896 9.75-10.33 5.363-5.435 11.187-11.625 12.943-13.757 1.757-2.133 11.769-12.609 22.25-23.282C114.425 45.423 123 36.31 123 35.845c0-.465.675-.845 1.5-.845s1.5-.45 1.5-1c0-4.407 9.127 3.784 30.5 27.369 4.4 4.856 12.5 13.464 18 19.129 9.276 9.556 37.763 39.315 41.75 43.615.962 1.038 1.75 2.107 1.75 2.377 0 .269 4.269 4.882 9.487 10.25 5.219 5.368 12.127 12.619 15.352 16.113l5.863 6.354 1.79-5.354c2.543-7.603 2.766-49.475.293-54.853-.885-1.925-1.911-5.277-2.28-7.449-.369-2.172-1.308-4.859-2.088-5.972-.779-1.113-1.417-2.994-1.417-4.179s-.675-2.715-1.5-3.4-1.5-2.035-1.5-3c0-.965-.675-2.315-1.5-3s-1.5-1.796-1.5-2.469c0-.674-.9-2.263-2-3.531-1.1-1.268-2-2.864-2-3.546 0-.682-.675-1.499-1.5-1.816-.825-.316-1.5-1.058-1.5-1.647 0-.59-1.012-2.516-2.25-4.281C226.416 49.954 206.907 31 205.346 31c-.74 0-1.346-.461-1.346-1.025 0-.563-1.125-1.452-2.5-1.975-1.375-.523-2.5-1.412-2.5-1.975 0-.564-.606-1.025-1.347-1.025s-2.385-.9-3.653-2c-1.268-1.1-2.857-2-3.531-2-.673 0-1.784-.675-2.469-1.5-.685-.825-2.26-1.5-3.5-1.5-1.24 0-2.815-.675-3.5-1.5s-2.091-1.5-3.126-1.5c-1.035 0-3.56-.9-5.613-2-2.052-1.1-4.863-2.014-6.246-2.032-1.383-.017-3.389-.692-4.456-1.5C160.374 8.572 157.374 8 153.858 8 145.981 8 138 6.197 138 4.417c0-2.012-17.536-2.067-18.308-.057m.518 125.946c-18.572 18.721-27.961 28.529-32.206 33.643-4.102 4.941-15.788 17.083-40.15 41.716l-9.065 9.165 3.691 3.585c2.031 1.972 4.055 3.585 4.499 3.585.444 0 1.066.675 1.383 1.5.316.825 1.058 1.5 1.647 1.5 1.344 0 7.219 4.075 8.291 5.75.44.688 1.622 1.25 2.627 1.25 1.006 0 2.388.675 3.073 1.5s1.817 1.5 2.515 1.5c.699 0 1.53.675 1.847 1.5.316.825 1.682 1.5 3.035 1.5 1.353 0 3.163.703 4.021 1.561.859.859 3.134 1.817 5.056 2.128 1.922.312 4.006 1.185 4.632 1.939.627.755 2.45 1.372 4.052 1.372 1.602 0 3.909.633 5.127 1.406 1.218.773 6.04 1.715 10.715 2.093 4.675.378 9.807 1.32 11.404 2.094 3.597 1.743 20.243 1.967 20.805.28.446-1.338 8.102-2.717 15.791-2.845 3.155-.053 6.328-.718 7.441-1.56 1.068-.807 3.825-1.468 6.128-1.468 2.338 0 4.691-.609 5.331-1.379.63-.759 2.511-1.653 4.18-1.987 1.67-.334 3.717-1.288 4.549-2.121.833-.832 2.621-1.513 3.974-1.513 1.353 0 2.719-.675 3.035-1.5.317-.825 1.442-1.5 2.5-1.5 1.059 0 2.184-.675 2.5-1.5.317-.825 1.171-1.5 1.898-1.5.726 0 1.916-.562 2.643-1.25.726-.687 3.346-2.6 5.821-4.25 2.475-1.65 4.65-3.338 4.833-3.75.184-.412.819-.75 1.411-.75.807 0 6.756-5.715 6.756-6.491 0-.072-3.941-4.153-8.758-9.07-4.817-4.916-11.68-12.252-15.25-16.302-3.571-4.05-10.992-11.998-16.492-17.663-13.825-14.239-31.635-33.106-36.196-38.343a365.63 365.63 0 00-7.385-8.194l-3.58-3.824-8.129 8.193M6 154c0 .55.45 1 1 1s1-.45 1-1-.45-1-1-1-1 .45-1 1m239.5 0c.34.55.816 1 1.059 1s.441-.45.441-1-.477-1-1.059-1-.781.45-.441 1" fill="#1976D2" fill-rule="evenodd"/></svg>